<?xml version="1.0" encoding="UTF-8" standalone="no"?>
<svg
   width="178"
   height="38"
   viewBox="0 0 178 38"
   fill="none"
   version="1.1"
   id="svg11"
   sodipodi:docname="logo-dark.svg"
   inkscape:version="1.3 (0e150ed, 2023-07-21)"
   xmlns:inkscape="http://www.inkscape.org/namespaces/inkscape"
   xmlns:sodipodi="http://sodipodi.sourceforge.net/DTD/sodipodi-0.dtd"
   xmlns="http://www.w3.org/2000/svg"
   xmlns:svg="http://www.w3.org/2000/svg">
  <sodipodi:namedview
     id="namedview11"
     pagecolor="#505050"
     bordercolor="#eeeeee"
     borderopacity="1"
     inkscape:showpageshadow="0"
     inkscape:pageopacity="0"
     inkscape:pagecheckerboard="0"
     inkscape:deskcolor="#505050"
     inkscape:zoom="7.1011236"
     inkscape:cx="95.477848"
     inkscape:cy="18.940665"
     inkscape:window-width="1920"
     inkscape:window-height="953"
     inkscape:window-x="0"
     inkscape:window-y="32"
     inkscape:window-maximized="1"
     inkscape:current-layer="svg11" />
  <path
     d="M0 8.42105C0 3.77023 3.77023 0 8.42105 0H23.5789C28.2298 0 32 3.77023 32 8.42105V23.5789C32 28.2298 28.2298 32 23.5789 32H8.42105C3.77023 32 0 28.2298 0 23.5789V8.42105Z"
     fill="#3C50E0"
     id="path1" />
  <g
     filter="url(#filter0_d_1_22)"
     id="g2">
    <path
       d="M8.42139 8.42127C8.42139 7.49111 9.17543 6.73706 10.1056 6.73706C11.0358 6.73706 11.7898 7.49111 11.7898 8.42127V23.5792C11.7898 24.5093 11.0358 25.2634 10.1056 25.2634C9.17543 25.2634 8.42139 24.5093 8.42139 23.5792V8.42127Z"
       fill="white"
       id="path2" />
  </g>
  <g
     opacity="0.9"
     filter="url(#filter1_d_1_22)"
     id="g3">
    <path
       d="M14.7368 15.1576C14.7368 14.2274 15.4909 13.4734 16.421 13.4734C17.3512 13.4734 18.1052 14.2274 18.1052 15.1576V23.5786C18.1052 24.5088 17.3512 25.2629 16.421 25.2629C15.4909 25.2629 14.7368 24.5088 14.7368 23.5786V15.1576Z"
       fill="white"
       id="path3" />
  </g>
  <g
     opacity="0.7"
     filter="url(#filter2_d_1_22)"
     id="g4"
     style="display:inline">
    <path
       d="m 21.0522,10.9469 c 0,-0.9302 0.7541,-1.6842 1.6843,-1.6842 0.9301,0 1.6842,0.754 1.6842,1.6842 v 12.6316 c 0,0.9301 -0.7541,1.6842 -1.6842,1.6842 -0.9302,0 -1.6843,-0.7541 -1.6843,-1.6842 z"
       fill="#ffffff"
       id="path4" />
  </g>
  <defs
     id="defs11">
    <filter
       id="filter0_d_1_22"
       x="7.42139"
       y="6.23706"
       width="5.36841"
       height="20.5263"
       filterUnits="userSpaceOnUse"
       color-interpolation-filters="sRGB">
      <feFlood
         flood-opacity="0"
         result="BackgroundImageFix"
         id="feFlood5" />
      <feColorMatrix
         in="SourceAlpha"
         type="matrix"
         values="0 0 0 0 0 0 0 0 0 0 0 0 0 0 0 0 0 0 127 0"
         result="hardAlpha"
         id="feColorMatrix5" />
      <feOffset
         dy="0.5"
         id="feOffset5" />
      <feGaussianBlur
         stdDeviation="0.5"
         id="feGaussianBlur5" />
      <feComposite
         in2="hardAlpha"
         operator="out"
         id="feComposite5" />
      <feColorMatrix
         type="matrix"
         values="0 0 0 0 0 0 0 0 0 0 0 0 0 0 0 0 0 0 0.12 0"
         id="feColorMatrix6" />
      <feBlend
         mode="normal"
         in2="BackgroundImageFix"
         result="effect1_dropShadow_1_22"
         id="feBlend6" />
      <feBlend
         mode="normal"
         in="SourceGraphic"
         in2="effect1_dropShadow_1_22"
         result="shape"
         id="feBlend7" />
    </filter>
    <filter
       id="filter1_d_1_22"
       x="13.7368"
       y="12.9734"
       width="5.36839"
       height="13.7895"
       filterUnits="userSpaceOnUse"
       color-interpolation-filters="sRGB">
      <feFlood
         flood-opacity="0"
         result="BackgroundImageFix"
         id="feFlood7" />
      <feColorMatrix
         in="SourceAlpha"
         type="matrix"
         values="0 0 0 0 0 0 0 0 0 0 0 0 0 0 0 0 0 0 127 0"
         result="hardAlpha"
         id="feColorMatrix7" />
      <feOffset
         dy="0.5"
         id="feOffset7" />
      <feGaussianBlur
         stdDeviation="0.5"
         id="feGaussianBlur7" />
      <feComposite
         in2="hardAlpha"
         operator="out"
         id="feComposite7" />
      <feColorMatrix
         type="matrix"
         values="0 0 0 0 0 0 0 0 0 0 0 0 0 0 0 0 0 0 0.12 0"
         id="feColorMatrix8" />
      <feBlend
         mode="normal"
         in2="BackgroundImageFix"
         result="effect1_dropShadow_1_22"
         id="feBlend8" />
      <feBlend
         mode="normal"
         in="SourceGraphic"
         in2="effect1_dropShadow_1_22"
         result="shape"
         id="feBlend9" />
    </filter>
    <filter
       id="filter2_d_1_22"
       x="20.0522"
       y="8.7627"
       width="5.3685"
       height="18"
       filterUnits="userSpaceOnUse"
       color-interpolation-filters="sRGB">
      <feFlood
         flood-opacity="0"
         result="BackgroundImageFix"
         id="feFlood9" />
      <feColorMatrix
         in="SourceAlpha"
         type="matrix"
         values="0 0 0 0 0 0 0 0 0 0 0 0 0 0 0 0 0 0 127 0"
         result="hardAlpha"
         id="feColorMatrix9" />
      <feOffset
         dy="0.5"
         id="feOffset9" />
      <feGaussianBlur
         stdDeviation="0.5"
         id="feGaussianBlur9" />
      <feComposite
         in2="hardAlpha"
         operator="out"
         id="feComposite9" />
      <feColorMatrix
         type="matrix"
         values="0 0 0 0 0 0 0 0 0 0 0 0 0 0 0 0 0 0 0.12 0"
         id="feColorMatrix10" />
      <feBlend
         mode="normal"
         in2="BackgroundImageFix"
         result="effect1_dropShadow_1_22"
         id="feBlend10" />
      <feBlend
         mode="normal"
         in="SourceGraphic"
         in2="effect1_dropShadow_1_22"
         result="shape"
         id="feBlend11" />
    </filter>
    <clipPath
       clipPathUnits="userSpaceOnUse"
       id="clipPath19">
      <path
         id="path20"
         style="fill:#ff0000;fill-opacity:1;fill-rule:nonzero;stroke:none"
         d="m 38.816406,12.335938 v 16.076171 h 52.136719 c -0.3037,-0.233026 -0.589336,-0.495689 -0.849609,-0.785156 -0.648068,-0.06876 -1.199963,-0.262592 -1.445313,-0.703125 -0.03552,-0.06378 -0.05866,-0.119317 -0.0918,-0.18164 -0.457795,0.04916 -0.917027,0.07705 -1.375,0.04687 -0.929326,-0.06123 -2.137956,0.138818 -2.732422,-0.578124 -0.217581,-0.262413 -0.374102,-0.558123 -0.496093,-0.871094 -0.12305,-0.03028 -0.240907,-0.07531 -0.347657,-0.152344 -0.05185,-0.03742 -0.09145,-0.08686 -0.140625,-0.126953 -0.69305,0.250831 -1.536628,0.33529 -2.537109,0.132812 -0.07457,-0.01509 -0.148429,-0.03276 -0.222656,-0.04883 -0.460427,0.247815 -0.93776,0.457929 -1.419922,0.626953 -0.476284,0.166966 -0.975344,0.260162 -1.462891,0.390625 -1.500862,0.141501 -2.540592,0.456465 -3.986328,-0.470703 -0.191933,-0.123089 -0.36195,-0.253844 -0.515625,-0.390625 -0.331828,-0.1876 -0.642885,-0.417407 -0.972656,-0.609375 -0.298406,-0.465901 -0.682643,-0.887349 -0.894531,-1.398437 -0.163665,-0.394759 -0.203885,-0.838318 -0.208985,-1.265625 -0.01663,-1.396596 0.736766,-2.569671 1.648438,-3.548828 0.08349,-0.08896 0.17189,-0.173211 0.255859,-0.261719 0.01967,-0.877675 0.386886,-1.742397 1.074219,-2.509766 0.02066,-0.02307 0.03449,-0.03066 0.05469,-0.05273 0.01507,-0.145739 0.03338,-0.293874 0.06641,-0.447266 0.132605,-0.615837 0.554326,-1.129873 0.832031,-1.695312 0.457783,-0.33543 0.860106,-0.763017 1.373047,-1.00586 0.158539,-0.07506 0.327599,-0.125321 0.498047,-0.169921 z m 48.675782,0 c 0.26228,0.421475 0.472033,0.877181 0.609374,1.371093 0.230456,-0.458955 0.44462,-0.926353 0.701172,-1.371093 z m 11.365234,0 c -0.158953,0.378826 -0.363971,0.741901 -0.585938,1.083984 -0.380055,0.585719 -0.840318,1.103494 -1.345703,1.576172 0.810078,-0.286763 1.566128,-0.539399 2.527344,-0.681641 0.123717,-0.01831 0.249884,-0.0341 0.375,-0.05273 0.947835,-0.277234 2.074705,-0.431082 2.929685,-0.314453 0.59113,0.08064 1.27091,0.06377 1.73438,0.439453 0.81589,0.661341 1.26799,1.672722 1.90234,2.509765 -0.0132,0.05502 -0.0195,0.11247 -0.0312,0.167969 0.35915,-0.198593 0.75952,-0.324188 1.13672,-0.490234 0.514,-0.132784 1.02042,-0.294523 1.54102,-0.398438 0.37786,-0.07542 0.76319,-0.11622 1.14648,-0.167969 -0.18865,-0.785574 -0.22764,-1.629101 -0.19922,-2.414062 0.0207,-0.571999 0.7737,-0.840822 1.16797,-1.257812 z m 35.173828,0 c 0.52018,0.904354 1.02185,1.818815 1.46094,2.763671 0.19958,-0.25215 0.4059,-0.498421 0.64258,-0.714843 0.71922,-0.657712 2.05377,-1.339345 2.95117,-1.664063 0.40929,-0.148102 0.85106,-0.275891 1.29883,-0.384765 z m 19.79687,0 c 0.82211,1.015532 1.19292,1.898333 1.13672,2.800781 0.19771,0.03159 0.39096,0.07119 0.55664,0.101562 0.19257,-0.251397 0.39215,-0.496035 0.625,-0.708984 0.29957,-0.27397 0.67345,-0.458231 1.03711,-0.638672 1.25531,-0.622858 2.83249,-0.964691 4.23047,-0.925781 0.59773,0.01664 1.18565,0.143204 1.7793,0.214844 1.19736,0.523813 2.14053,0.73166 2.82617,1.769531 0.8834,-0.290964 1.86519,-0.531338 2.70899,-0.201172 0.13309,0.05208 0.24586,0.118557 0.36132,0.183594 v -2.595703 z m -16.5332,12.804687 c -0.21656,0.01609 -0.36905,0.02771 -0.61133,0.04687 -0.27878,0.0047 -0.97999,0.01681 -1.59179,0.02734 -0.13468,0.08928 -0.26295,0.18853 -0.40821,0.259765 -0.9577,0.469656 -2.59501,0.6918 -3.60156,0.810547 -1.83591,0.216592 -3.68759,0.309024 -5.52344,0.109375 -6.5e-4,0.0032 -9.5e-4,0.0066 -0.002,0.0098 -0.11808,0.573838 -0.90357,0.758661 -1.41797,1.039062 -0.30892,0.168395 -0.67024,0.22003 -1.01562,0.28711 -1.00781,0.195727 -1.32122,0.09974 -2.38672,0.03125 -0.47935,-0.39151 -1.12258,-0.673809 -1.65235,-1.03125 -0.92331,-0.04721 -1.84784,-0.06316 -2.77148,-0.01172 -1.27,0.06428 -1.50553,0.08721 -1.43945,-1.09375 -0.67756,0.1906 -1.36883,0.337785 -2.26758,0.560547 -1.18992,0.132356 -3.03359,0.479161 -4.43164,0.158203 -0.85613,0.160183 -1.7261,0.256296 -2.51758,0.113281 -0.60154,-0.108693 -1.27151,-0.226324 -1.8125,-0.513672 -0.34392,0.03866 -0.68687,0.08475 -1.03125,0.119141 -1.25417,0.653862 -2.25547,1.144535 -4.253906,1.814453 -0.543293,0.182124 -1.086946,0.370532 -1.636719,0.535156 h 57.152345 c -0.0871,-0.392821 -0.19578,-0.923582 -0.26758,-1.246093 -0.24479,0.104031 -0.49034,0.202695 -0.74414,0.28125 -0.93197,0.288458 -2.32261,0.50413 -3.27734,0.59375 -0.57,0.05351 -1.14253,0.10276 -1.71485,0.08789 -0.68114,-0.0177 -1.43959,0.141933 -2.03711,-0.185547 -0.98993,-0.542547 -1.65837,-1.529693 -2.48828,-2.294921 0.004,-0.02246 0.006,-0.04585 0.01,-0.06836 -1.13424,0.06912 -2.46025,0.144537 -3.08985,0.13086 -0.79194,-0.0172 -1.65451,0.161809 -2.37109,-0.175782 -0.25817,-0.121625 -0.52996,-0.251754 -0.79883,-0.394531 z m -49.550779,0.146484 c -0.03048,0.01543 -0.06355,0.02498 -0.09375,0.04102 -0.0998,0.053 -0.359482,0.272811 -0.263672,0.212891 0.124054,-0.07759 0.239595,-0.166973 0.357422,-0.253907 z m 81.345699,1.035157 c -0.16933,0.182166 -0.34584,0.35287 -0.53711,0.501953 -0.41917,0.633074 -1.16761,0.898469 -1.82031,1.18164 -0.24376,0.153769 -0.49785,0.285394 -0.75586,0.40625 h 3.11328 z m -20.69726,0.152343 c -0.0867,0.05496 -0.17801,0.103484 -0.25,0.175782 -0.0582,0.05848 0.19281,-0.02737 0.22461,-0.103516 0.01,-0.02359 0.0158,-0.04859 0.0254,-0.07227 z m -25.76953,0.222657 c -0.02,0.01196 -0.0427,0.01894 -0.0625,0.03125 -0.0265,0.01676 -0.004,0.125156 0.008,0.0957 0.0203,-0.05058 0.0349,-0.07847 0.0547,-0.126953 z" />
    </clipPath>
  </defs>
  <text
     xml:space="preserve"
     style="font-size:26.6667px;font-family:FreeSans;-inkscape-font-specification:FreeSans;fill:#1c2434;stroke-width:0.997002;fill-opacity:1"
     x="46.716061"
     y="24.891209"
     id="text20"><tspan
       sodipodi:role="line"
       id="tspan20"
       x="46.716061"
       y="24.891209"
       style="font-style:normal;font-variant:normal;font-weight:bold;font-stretch:normal;font-size:26.6667px;font-family:'Ubuntu Mono';-inkscape-font-specification:'Ubuntu Mono Bold';fill:#1c2434;stroke-width:0.997002;fill-opacity:1">BookBank</tspan></text>
</svg>
